<svg xmlns="http://www.w3.org/2000/svg"  viewBox="0 0 478 376.99">
    <path class="a" d="M382.87,271.13A97,97,0,0,1,349.64,265a10.36,10.36,0,0,1-1.63-.82c-34.26-20.84-55.54-62.44-55.54-108.56C292.47,88.55,337.86,34,393.64,34S494.82,88.55,494.82,155.61c0,8.19-5.52,14.83-12.34,14.83s-12.34-6.64-12.34-14.83c0-50.7-34.31-92-76.5-92s-76.49,41.25-76.49,92c0,34.48,15.73,65.62,41.12,81.55,4,1.42,22.8,7.53,39.35,2.18,6.58-2.12,13.35,2.57,15.12,10.48s-2.13,16-8.71,18.17A69,69,0,0,1,382.87,271.13Z" transform="translate(-18 -34)"/>
    <path class="a" d="M297.66,411c-6.35,0-11.75-5.86-12.28-13.61-.56-8.17,4.5-15.33,11.29-16,79.37-7.83,132.52-42.73,158-103.72,20.15-48.32,16.89-99.14,15.82-115.83-.18-2.82-.3-4.69-.3-6.22,0-8.19,5.53-14.83,12.34-14.83s12.33,6.62,12.34,14.8c0,.56.13,2.37.23,4,1.2,18.73,4.85,75.73-18.37,131.41-13.3,31.91-33.25,58-59.29,77.67-31,23.37-70.95,37.61-118.7,42.32A8.88,8.88,0,0,1,297.66,411ZM494.82,155.61h0Z" transform="translate(-18 -34)"/>
    <path class="a" d="M296.14,359.32c-6.42,0-11.83-6-12.3-13.77-.48-8.17,4.63-15.27,11.43-15.86,28.82-2.48,48.41-14.63,55.17-34.2,5-14.47,1.6-28.06-1.32-32.12-4.46-6.2-3.89-15.57,1.26-20.92s12.95-4.68,17.41,1.52c9.11,12.67,13.91,38.34,5.44,62.88C359,348,319.4,357.35,297,359.28,296.73,359.3,296.43,359.32,296.14,359.32Z" transform="translate(-18 -34)"/>
    <path class="a" d="M123.68,276.88c-20.82,0-39.44-11.41-41.6-12.78-34.19-20.86-55.43-62.42-55.43-108.49C26.65,88.55,72,34,127.83,34S229,88.55,229,155.61c0,8.19-5.52,14.83-12.34,14.83s-12.34-6.64-12.34-14.83c0-50.7-34.32-92-76.5-92s-76.5,41.25-76.5,92c0,34.88,16.1,66.33,42,82.1l.29.18c.14.09,17,10.73,33.23,9.18,6.83-.66,12.73,5.46,13.27,13.62S135.6,276,128.8,276.64C127.09,276.81,125.37,276.88,123.68,276.88Z" transform="translate(-18 -34)"/>
    <path class="a" d="M31.85,411c-6.36,0-11.75-5.86-12.28-13.61-.56-8.17,4.49-15.33,11.29-16,79.37-7.83,132.51-42.73,158-103.72,20.15-48.32,16.89-99.14,15.82-115.84-.18-2.81-.3-4.68-.3-6.21,0-8.19,5.52-14.83,12.34-14.83S229,147.4,229,155.58c0,.56.12,2.37.23,4,1.2,18.73,4.85,75.73-18.37,131.41-13.31,31.91-33.26,58-59.3,77.67-31,23.37-70.94,37.61-118.69,42.32A9,9,0,0,1,31.85,411ZM229,155.61h0Z" transform="translate(-18 -34)"/>
    <path class="a" d="M30.33,359.32c-6.42,0-11.83-6-12.3-13.77-.48-8.17,4.63-15.27,11.43-15.86,28.82-2.48,48.41-14.62,55.17-34.2,5-14.46,1.6-28.06-1.33-32.12-4.45-6.2-3.89-15.57,1.27-20.92s13-4.68,17.4,1.52c9.12,12.67,13.92,38.34,5.45,62.88-14.19,41.13-53.83,50.5-76.2,52.43C30.92,359.3,30.62,359.32,30.33,359.32Z" transform="translate(-18 -34)"/>
</svg>
