<svg xmlns="http://www.w3.org/2000/svg" viewBox="0 0 236 226.77">
    <path class="a" d="M121.28,44.9s-23.11,34.95-13,65.29c12.81,38.46,43.59,46.51,43.59,46.51s-20.24-25.87-29.7-51C110.72,75.21,121.28,44.9,121.28,44.9Z" transform="translate(-10 -9)"/>
    <path class="b" d="M154.81,56.92a26.1,26.1,0,0,0,5.39-.8s1.05-1.67-3.31-2.71a9.4,9.4,0,0,0-7.06.82l-2.06.85S151.5,57.12,154.81,56.92Z" transform="translate(-10 -9)"/>
    <path class="c" d="M185.68,65.44c.65-1.67,1.07-4.34-.37-5.83s-2.27-2.69-3.95-.56C181.36,59.05,185.09,67.1,185.68,65.44Z" transform="translate(-10 -9)"/>
    <path class="d" d="M246,127A118,118,0,1,0,82.18,235.77a48.72,48.72,0,0,1-8.08-15.11c-8.33-25.36,8.19-47.21,8.19-47.21s-13.23-1.4-12.19-4.51,8.19-12,11-21.7c3-10.33,4-15.7,4-15.7S73.75,136.55,75,133s6.42-19.5,8.51-28.19S86.45,93,86.45,93s-10.38,3.33-9.56,1.47a63,63,0,0,0,4.55-20.93C81.87,63,85.78,53,88.89,48.63A26.33,26.33,0,0,1,95.75,42S93,34.94,93.66,34.57s6,1,8.9.57a9.46,9.46,0,0,1,5.4,1s23.41-9.5,35.26-4.93,12,10.77,17.4,13.05,7.25,3.7,8.29,5.63a3.9,3.9,0,0,1,.41,3.28s10.57.83,14.09,2.71,5.4,5,4.57,7.68a13.47,13.47,0,0,0-.83,5.36c0,2.07.84,4-.82,8.08S183,81.38,183,81.38a7.18,7.18,0,0,0-3.6-.43,6,6,0,0,0-3.74,1.83l-.82-2.7s-8-8.38-17.73-4.17c-6.42,2.75-8.36,4.47-4.71,11.74,1.58,3.16,10.26,4.12,12.74,4.12A8.69,8.69,0,0,0,170,89.9l.82,2.28L174.3,92l2.06-1v4.76s3.12,2.28,1.25,6.85-15.74,3.17-15.74,3.17,8.41,11.46,9.42,18.08S173,134.22,173,134.22l5.4-2.22s7.16-3.48,12.15-.83,5.51,2.25,1.36,6.18S170.2,167,170.2,183.4,180,196,182.93,218.24c.6,4.79-1.84,10.61-6.07,16.2A118,118,0,0,0,246,127Z" transform="translate(-10 -9)"/>
    <path class="e" d="M131,66.27a72.77,72.77,0,0,1-.8-14.12s-14.5,29.91,16.89,71.35a70.15,70.15,0,0,1,12.74,29.88S169.85,121.72,144.08,96C133.43,85.31,132.23,74.56,131,66.27Z" transform="translate(-10 -9)"/>
</svg>
