<svg xmlns="http://www.w3.org/2000/svg" viewBox="0 0 465.75 441.55">
    <path class="a" d="M118.42,481.55A9.48,9.48,0,0,1,109,472.1V430.49a89.87,89.87,0,0,1-84.78-89.62V129.75A89.85,89.85,0,0,1,113.94,40H400.19a89.85,89.85,0,0,1,89.75,89.75V340.87a89.86,89.86,0,0,1-89.75,89.76H190.4L124,479.7A9.45,9.45,0,0,1,118.42,481.55ZM113.94,58.89a70.94,70.94,0,0,0-70.86,70.86V340.87a71,71,0,0,0,70.86,70.87h4.48a9.44,9.44,0,0,1,9.44,9.44v32.19l53.81-39.78a9.46,9.46,0,0,1,5.62-1.85h212.9a71,71,0,0,0,70.86-70.87V129.75a70.94,70.94,0,0,0-70.86-70.86Z" transform="translate(-24.19 -40)"/>
    <path class="a" d="M220.32,149.15H108.56a9.44,9.44,0,1,1,0-18.88H220.32a9.44,9.44,0,0,1,0,18.88Z" transform="translate(-24.19 -40)"/>
    <path class="a" d="M406.59,212.51h-298a9.45,9.45,0,1,1,0-18.89h298a9.45,9.45,0,0,1,0,18.89Z" transform="translate(-24.19 -40)"/>
    <path class="a" d="M406.59,275.86h-298a9.45,9.45,0,1,1,0-18.89h298a9.45,9.45,0,0,1,0,18.89Z" transform="translate(-24.19 -40)"/>
    <path class="a" d="M406.59,339.21h-298a9.45,9.45,0,1,1,0-18.89h298a9.45,9.45,0,0,1,0,18.89Z" transform="translate(-24.19 -40)"/>
</svg>
